<svg xmlns="http://www.w3.org/2000/svg" width="16" height="16" viewBox="0 0 16 16" fill="none">
<path d="M1.33398 12.6666C1.33398 13.7999 2.20065 14.6666 3.33398 14.6666H12.6673C13.8007 14.6666 14.6673 13.7999 14.6673 12.6666V7.33325H1.33398V12.6666ZM12.6673 2.66659H11.334V1.99992C11.334 1.59992 11.0673 1.33325 10.6673 1.33325C10.2673 1.33325 10.0007 1.59992 10.0007 1.99992V2.66659H6.00065V1.99992C6.00065 1.59992 5.73398 1.33325 5.33398 1.33325C4.93398 1.33325 4.66732 1.59992 4.66732 1.99992V2.66659H3.33398C2.20065 2.66659 1.33398 3.53325 1.33398 4.66658V5.99992H14.6673V4.66658C14.6673 3.53325 13.8007 2.66659 12.6673 2.66659Z" fill="#F28119"/>
<rect x="4" y="8.51514" width="2" height="2" fill="white"/>
<rect x="4" y="11.5151" width="2" height="2" fill="white"/>
<rect x="7" y="8.51514" width="2" height="2" fill="white"/>
<rect x="7" y="11.5151" width="2" height="2" fill="white"/>
<rect x="10" y="8.51514" width="2" height="2" fill="white"/>
<rect x="10" y="11.5151" width="2" height="2" fill="white"/>
</svg>