<svg xmlns="http://www.w3.org/2000/svg" width="32" height="33" viewBox="0 0 32 33" fill="none">
  <g clip-path="url(#clip0_4058_1578)">
    <path d="M16 30.5C12.287 30.5 8.72601 29.025 6.1005 26.3995C3.475 23.774 2 20.213 2 16.5C2 12.787 3.475 9.22601 6.1005 6.6005C8.72601 3.975 12.287 2.5 16 2.5C19.713 2.5 23.274 3.975 25.8995 6.6005C28.525 9.22601 30 12.787 30 16.5C30 20.213 28.525 23.774 25.8995 26.3995C23.274 29.025 19.713 30.5 16 30.5ZM16 32.5C20.2435 32.5 24.3131 30.8143 27.3137 27.8137C30.3143 24.8131 32 20.7435 32 16.5C32 12.2565 30.3143 8.18687 27.3137 5.18629C24.3131 2.18571 20.2435 0.5 16 0.5C11.7565 0.5 7.68687 2.18571 4.68629 5.18629C1.68571 8.18687 0 12.2565 0 16.5C0 20.7435 1.68571 24.8131 4.68629 27.8137C7.68687 30.8143 11.7565 32.5 16 32.5Z" fill="#609484"/>
    <path d="M21.9402 10.4401C21.9259 10.4539 21.9126 10.4686 21.9002 10.4841L14.9542 19.3341L10.7682 15.1461C10.4838 14.8811 10.1077 14.7369 9.71914 14.7437C9.33054 14.7506 8.95977 14.908 8.68495 15.1828C8.41012 15.4577 8.2527 15.8284 8.24584 16.217C8.23898 16.6056 8.38323 16.9817 8.64819 17.2661L13.9402 22.5601C14.0828 22.7024 14.2525 22.8145 14.4394 22.8898C14.6262 22.9651 14.8263 23.0019 15.0277 22.9982C15.2291 22.9945 15.4277 22.9502 15.6116 22.8681C15.7955 22.7859 15.961 22.6676 16.0982 22.5201L24.0822 12.5401C24.354 12.2547 24.5027 11.8739 24.496 11.4798C24.4893 11.0858 24.3277 10.7102 24.0463 10.4343C23.7649 10.1584 23.3862 10.0043 22.9921 10.0054C22.5979 10.0065 22.2201 10.1626 21.9402 10.4401Z" fill="#609484"/>
  </g>
  <defs>
    <clipPath id="clip0_4058_1578">
      <rect width="32" height="32" fill="white" transform="translate(0 0.5)"/>
    </clipPath>
  </defs>
</svg>