<svg width="12" height="12" viewBox="0 0 12 12" fill="none" xmlns="http://www.w3.org/2000/svg">
<path d="M5.9299 11.9996C5.14795 11.9996 4.41264 11.8525 3.72395 11.5584C3.03885 11.2642 2.43446 10.8571 1.91077 10.337C1.39067 9.81335 0.981764 9.20895 0.684051 8.52385C0.389925 7.83876 0.244655 7.10344 0.248242 6.31791C0.251829 5.53238 0.400686 4.79706 0.694812 4.11196C0.992525 3.42686 1.40143 2.82427 1.92153 2.30416C2.44163 1.78048 3.04423 1.37157 3.72933 1.07744C4.41443 0.783317 5.14795 0.636254 5.9299 0.636254C6.71543 0.636254 7.45074 0.783317 8.13584 1.07744C8.82453 1.37157 9.42713 1.78048 9.94364 2.30416C10.4637 2.82427 10.8709 3.42686 11.165 4.11196C11.4591 4.79706 11.608 5.53238 11.6116 6.31791C11.6151 7.10344 11.4699 7.83876 11.1757 8.52385C10.8816 9.20895 10.4745 9.81335 9.9544 10.337C9.4343 10.8571 8.82991 11.2642 8.14122 11.5584C7.45254 11.8525 6.71543 11.9996 5.9299 11.9996ZM5.9299 10.7513C6.54326 10.7513 7.11896 10.6365 7.65699 10.407C8.19503 10.1774 8.6667 9.85998 9.07202 9.45466C9.47734 9.04934 9.79479 8.57945 10.0243 8.045C10.2539 7.50697 10.3669 6.93306 10.3633 6.32329C10.3597 5.70993 10.2431 5.13423 10.0136 4.5962C9.78402 4.05816 9.46658 3.58648 9.06126 3.18116C8.65594 2.77584 8.18606 2.4584 7.65161 2.22884C7.11716 1.99928 6.54326 1.8845 5.9299 1.8845C5.32012 1.8845 4.74801 1.99928 4.21356 2.22884C3.67912 2.4584 3.20923 2.77764 2.80391 3.18654C2.39859 3.59186 2.07936 4.06354 1.84621 4.60158C1.61665 5.13602 1.50007 5.70993 1.49648 6.32329C1.4929 6.92948 1.60589 7.50159 1.83545 8.03962C2.06501 8.57407 2.38245 9.04396 2.78777 9.44928C3.19668 9.8546 3.66835 10.1738 4.2028 10.407C4.74084 10.6365 5.31654 10.7513 5.9299 10.7513Z" fill="#5B4C38"/>
</svg>
