<svg xmlns="http://www.w3.org/2000/svg" width="12" height="15" viewBox="0 0 12 15" fill="none">
  <path d="M0.777244 14.9147C0.898568 14.9778 1.03479 15.0067 1.17128 14.9983C1.30777 14.9898 1.43939 14.9443 1.55199 14.8667L11.302 8.11674C11.4016 8.04771 11.483 7.95557 11.5393 7.8482C11.5955 7.74084 11.6249 7.62144 11.6249 7.50024C11.6249 7.37903 11.5955 7.25964 11.5393 7.15227C11.483 7.0449 11.4016 6.95276 11.302 6.88374L1.55199 0.133735C1.43947 0.0558798 1.3078 0.0102891 1.17123 0.0018996C1.03466 -0.00648989 0.898394 0.0226416 0.777191 0.0861397C0.655989 0.149638 0.554466 0.245083 0.483617 0.36214C0.412767 0.479198 0.37529 0.613407 0.375244 0.750235V14.2502C0.375222 14.3871 0.412671 14.5214 0.483535 14.6386C0.554398 14.7557 0.655971 14.8512 0.777244 14.9147Z" fill="white"/>
</svg>