<svg width="24" height="24" viewBox="0 0 24 24" fill="none" xmlns="http://www.w3.org/2000/svg">
<g clip-path="url(#clip0_360_3614)">
<path d="M15.1177 10.2342C15.1177 10.5874 14.9774 10.9262 14.7276 11.176C14.4778 11.4258 14.139 11.5661 13.7858 11.5661H11.5659V13.7861C11.5659 14.1393 11.4255 14.4781 11.1757 14.7279C10.926 14.9777 10.5872 15.118 10.2339 15.118C9.88067 15.118 9.54188 14.9777 9.2921 14.7279C9.04231 14.4781 8.90198 14.1393 8.90198 13.7861V11.5661H6.68208C6.32883 11.5661 5.99005 11.4258 5.74026 11.176C5.49047 10.9262 5.35015 10.5874 5.35015 10.2342C5.35015 9.8809 5.49047 9.54211 5.74026 9.29231C5.99005 9.04252 6.32883 8.90219 6.68208 8.90219H8.90198V6.68224C8.90198 6.32898 9.04231 5.99019 9.2921 5.7404C9.54188 5.4906 9.88067 5.35027 10.2339 5.35027C10.5872 5.35027 10.926 5.4906 11.1757 5.7404C11.4255 5.99019 11.5659 6.32898 11.5659 6.68224V8.90219H13.7858C14.139 8.90219 14.4778 9.04252 14.7276 9.29231C14.9774 9.54211 15.1177 9.8809 15.1177 10.2342ZM23.6077 23.6082C23.4839 23.7324 23.3369 23.8309 23.175 23.8982C23.0131 23.9654 22.8395 24 22.6642 24C22.4889 24 22.3154 23.9654 22.1535 23.8982C21.9916 23.8309 21.8445 23.7324 21.7208 23.6082L16.4496 18.337C14.3901 19.9175 11.8065 20.6554 9.22291 20.401C6.63934 20.1466 4.24926 18.9189 2.53752 16.9671C0.825785 15.0153 -0.0794411 12.4854 0.00547667 9.89062C0.0903944 7.29589 1.1591 4.8306 2.99479 2.99486C4.83049 1.15912 7.29572 0.0903965 9.89039 0.0054768C12.4851 -0.0794429 15.0149 0.825804 16.9667 2.53758C18.9185 4.24936 20.1461 6.6395 20.4005 9.22313C20.6549 11.8068 19.917 14.3904 18.3365 16.45L23.6132 21.7257C23.8619 21.9762 24.001 22.3152 24 22.6681C23.999 23.0211 23.8579 23.3592 23.6077 23.6082ZM10.2339 17.782C11.7267 17.782 13.186 17.3393 14.4272 16.5099C15.6684 15.6806 16.6358 14.5018 17.207 13.1226C17.7783 11.7434 17.9278 10.2258 17.6365 8.76165C17.3453 7.29752 16.6265 5.95262 15.5709 4.89704C14.5154 3.84146 13.1705 3.1226 11.7064 2.83136C10.2423 2.54013 8.72471 2.6896 7.34556 3.26088C5.96641 3.83215 4.78762 4.79958 3.95828 6.04081C3.12893 7.28204 2.68627 8.74134 2.68627 10.2342C2.68862 12.2352 3.48457 14.1537 4.89952 15.5687C6.31447 16.9837 8.23288 17.7796 10.2339 17.782Z" fill="#9ED0E0"/>
</g>
<defs>
<clipPath id="clip0_360_3614">
<rect width="24" height="24" fill="white"/>
</clipPath>
</defs>
</svg>
