<svg xmlns="http://www.w3.org/2000/svg" width="113" height="46" viewBox="0 0 113 46" fill="none">
  <g clip-path="url(#clip0_1_1631)">
    <path d="M35 10.6723L20.3263 2L1 12.479V45H35" stroke="#795A1C" stroke-width="2" stroke-linecap="round"/>
    <path d="M11 21V45" stroke="#795A1C" stroke-width="2" stroke-linecap="round"/>
    <path d="M22.736 30C22.472 30 22.25 29.91 22.07 29.73C21.89 29.55 21.8 29.328 21.8 29.064V16.878C21.8 16.602 21.89 16.38 22.07 16.212C22.25 16.032 22.472 15.942 22.736 15.942H25.976C26.876 15.942 27.6741 16.134 28.3701 16.518C29.0661 16.89 29.606 17.406 29.99 18.066C30.386 18.726 30.584 19.494 30.584 20.37C30.584 21.186 30.386 21.912 29.99 22.548C29.606 23.184 29.0661 23.682 28.3701 24.042C27.6741 24.402 26.876 24.582 25.976 24.582H23.6721V29.064C23.6721 29.328 23.5821 29.55 23.4021 29.73C23.2341 29.91 23.012 30 22.736 30ZM30.206 30C30.038 30 29.8821 29.964 29.7381 29.892C29.6061 29.82 29.492 29.706 29.396 29.55L26.156 24.33L27.9741 23.808L30.9261 28.56C31.142 28.908 31.1721 29.238 31.0161 29.55C30.8601 29.85 30.59 30 30.206 30ZM23.6721 22.854H25.976C26.528 22.854 27.014 22.752 27.434 22.548C27.854 22.332 28.184 22.038 28.424 21.666C28.664 21.282 28.784 20.85 28.784 20.37C28.784 19.842 28.664 19.374 28.424 18.966C28.184 18.558 27.854 18.24 27.434 18.012C27.014 17.784 26.528 17.67 25.976 17.67H23.6721V22.854ZM35.531 30C35.267 30 35.0451 29.916 34.8651 29.748C34.6971 29.568 34.613 29.346 34.613 29.082V21.072C34.613 20.796 34.6971 20.574 34.8651 20.406C35.0451 20.238 35.267 20.154 35.531 20.154C35.807 20.154 36.029 20.238 36.197 20.406C36.365 20.574 36.4491 20.796 36.4491 21.072V29.082C36.4491 29.346 36.365 29.568 36.197 29.748C36.029 29.916 35.807 30 35.531 30ZM35.531 18.552C35.207 18.552 34.9251 18.438 34.6851 18.21C34.4571 17.97 34.343 17.688 34.343 17.364C34.343 17.04 34.4571 16.764 34.6851 16.536C34.9251 16.296 35.207 16.176 35.531 16.176C35.855 16.176 36.1311 16.296 36.3591 16.536C36.5991 16.764 36.7191 17.04 36.7191 17.364C36.7191 17.688 36.5991 17.97 36.3591 18.21C36.1311 18.438 35.855 18.552 35.531 18.552ZM45.7687 30.072C44.8088 30.072 43.9507 29.856 43.1947 29.424C42.4507 28.98 41.8627 28.386 41.4307 27.642C41.0107 26.886 40.8008 26.034 40.8008 25.086C40.8008 24.114 41.0107 23.25 41.4307 22.494C41.8507 21.738 42.4267 21.15 43.1587 20.73C43.8907 20.298 44.7307 20.082 45.6787 20.082C46.3867 20.082 47.0347 20.22 47.6227 20.496C48.2107 20.76 48.7387 21.162 49.2067 21.702C49.3747 21.894 49.4347 22.092 49.3867 22.296C49.3387 22.5 49.2067 22.68 48.9907 22.836C48.8228 22.956 48.6368 22.998 48.4328 22.962C48.2288 22.914 48.0427 22.806 47.8747 22.638C47.2867 22.014 46.5547 21.702 45.6787 21.702C45.0667 21.702 44.5268 21.846 44.0588 22.134C43.5907 22.41 43.2248 22.8 42.9608 23.304C42.6968 23.808 42.5648 24.402 42.5648 25.086C42.5648 25.734 42.6968 26.31 42.9608 26.814C43.2367 27.318 43.6147 27.72 44.0947 28.02C44.5747 28.308 45.1327 28.452 45.7687 28.452C46.1887 28.452 46.5547 28.404 46.8667 28.308C47.1907 28.2 47.4847 28.038 47.7487 27.822C47.9407 27.666 48.1388 27.582 48.3428 27.57C48.5468 27.546 48.7268 27.6 48.8828 27.732C49.0868 27.9 49.2008 28.092 49.2248 28.308C49.2488 28.512 49.1768 28.698 49.0088 28.866C48.1448 29.67 47.0647 30.072 45.7687 30.072ZM54.4733 26.418C54.2093 26.418 53.9873 26.334 53.8073 26.166C53.6393 25.986 53.5552 25.764 53.5552 25.5V16.86C53.5552 16.584 53.6393 16.362 53.8073 16.194C53.9873 16.026 54.2093 15.942 54.4733 15.942C54.7493 15.942 54.9712 16.026 55.1392 16.194C55.3072 16.362 55.3913 16.584 55.3913 16.86V25.5C55.3913 25.764 55.3072 25.986 55.1392 26.166C54.9712 26.334 54.7493 26.418 54.4733 26.418ZM61.8713 30.018C61.6073 30.018 61.3853 29.934 61.2052 29.766C61.0373 29.586 60.9533 29.364 60.9533 29.1V24.672C60.9533 23.988 60.8272 23.43 60.5752 22.998C60.3232 22.566 59.9812 22.248 59.5492 22.044C59.1292 21.828 58.6432 21.72 58.0913 21.72C57.5872 21.72 57.1313 21.822 56.7233 22.026C56.3153 22.23 55.9913 22.506 55.7513 22.854C55.5112 23.19 55.3913 23.58 55.3913 24.024H54.2572C54.2572 23.268 54.4372 22.596 54.7972 22.008C55.1693 21.408 55.6732 20.934 56.3092 20.586C56.9453 20.238 57.6592 20.064 58.4512 20.064C59.2792 20.064 60.0173 20.244 60.6652 20.604C61.3252 20.952 61.8412 21.468 62.2132 22.152C62.5972 22.836 62.7892 23.676 62.7892 24.672V29.1C62.7892 29.364 62.6992 29.586 62.5192 29.766C62.3512 29.934 62.1353 30.018 61.8713 30.018ZM54.4733 30.018C54.2093 30.018 53.9873 29.934 53.8073 29.766C53.6393 29.586 53.5552 29.364 53.5552 29.1V21.072C53.5552 20.796 53.6393 20.574 53.8073 20.406C53.9873 20.238 54.2093 20.154 54.4733 20.154C54.7493 20.154 54.9712 20.238 55.1392 20.406C55.3072 20.574 55.3913 20.796 55.3913 21.072V29.1C55.3913 29.364 55.3072 29.586 55.1392 29.766C54.9712 29.934 54.7493 30.018 54.4733 30.018ZM67.2284 25.986C66.9644 25.986 66.7424 25.902 66.5624 25.734C66.3944 25.566 66.3104 25.35 66.3104 25.086C66.3104 24.81 66.3944 24.588 66.5624 24.42C66.7424 24.252 66.9644 24.168 67.2284 24.168H71.2424C71.5064 24.168 71.7223 24.252 71.8903 24.42C72.0583 24.588 72.1424 24.81 72.1424 25.086C72.1424 25.35 72.0583 25.566 71.8903 25.734C71.7223 25.902 71.5064 25.986 71.2424 25.986H67.2284ZM76.8517 30C76.5877 30 76.3657 29.91 76.1856 29.73C76.0177 29.55 75.9337 29.328 75.9337 29.064V16.878C75.9337 16.614 76.0236 16.392 76.2036 16.212C76.3836 16.032 76.5997 15.942 76.8517 15.942C77.1157 15.942 77.3377 16.032 77.5177 16.212C77.6977 16.392 77.7876 16.614 77.7876 16.878V28.128H84.3036C84.5676 28.128 84.7896 28.218 84.9696 28.398C85.1496 28.578 85.2397 28.8 85.2397 29.064C85.2397 29.328 85.1496 29.55 84.9696 29.73C84.7896 29.91 84.5676 30 84.3036 30H76.8517ZM89.8405 30C89.5765 30 89.3545 29.916 89.1745 29.748C89.0065 29.568 88.9225 29.346 88.9225 29.082V21.072C88.9225 20.796 89.0065 20.574 89.1745 20.406C89.3545 20.238 89.5765 20.154 89.8405 20.154C90.1165 20.154 90.3385 20.238 90.5065 20.406C90.6745 20.574 90.7585 20.796 90.7585 21.072V29.082C90.7585 29.346 90.6745 29.568 90.5065 29.748C90.3385 29.916 90.1165 30 89.8405 30ZM89.8405 18.552C89.5165 18.552 89.2344 18.438 88.9944 18.21C88.7664 17.97 88.6525 17.688 88.6525 17.364C88.6525 17.04 88.7664 16.764 88.9944 16.536C89.2344 16.296 89.5165 16.176 89.8405 16.176C90.1645 16.176 90.4405 16.296 90.6685 16.536C90.9085 16.764 91.0284 17.04 91.0284 17.364C91.0284 17.688 90.9085 17.97 90.6685 18.21C90.4405 18.438 90.1645 18.552 89.8405 18.552ZM96.6761 30C96.4482 30 96.2441 29.916 96.0641 29.748C95.8841 29.58 95.7941 29.358 95.7941 29.082V20.208C95.7941 19.344 95.9622 18.594 96.2982 17.958C96.6462 17.322 97.1261 16.83 97.7381 16.482C98.3501 16.122 99.0582 15.942 99.8622 15.942C100.126 15.942 100.342 16.02 100.51 16.176C100.69 16.332 100.78 16.53 100.78 16.77C100.78 16.998 100.69 17.196 100.51 17.364C100.342 17.52 100.126 17.598 99.8622 17.598C99.4182 17.598 99.0282 17.7 98.6922 17.904C98.3562 18.108 98.0921 18.39 97.9001 18.75C97.7201 19.11 97.6301 19.536 97.6301 20.028V29.082C97.6301 29.358 97.5461 29.58 97.3781 29.748C97.2101 29.916 96.9762 30 96.6761 30ZM95.0202 22.062C94.7682 22.062 94.5641 21.99 94.4081 21.846C94.2521 21.702 94.1741 21.522 94.1741 21.306C94.1741 21.066 94.2521 20.874 94.4081 20.73C94.5641 20.586 94.7682 20.514 95.0202 20.514H99.4662C99.7182 20.514 99.9221 20.586 100.078 20.73C100.234 20.874 100.312 21.066 100.312 21.306C100.312 21.522 100.234 21.702 100.078 21.846C99.9221 21.99 99.7182 22.062 99.4662 22.062H95.0202ZM107.938 30.072C106.942 30.072 106.054 29.862 105.274 29.442C104.506 29.01 103.9 28.422 103.456 27.678C103.024 26.922 102.808 26.058 102.808 25.086C102.808 24.102 103.012 23.238 103.42 22.494C103.84 21.738 104.416 21.15 105.148 20.73C105.88 20.298 106.72 20.082 107.668 20.082C108.604 20.082 109.408 20.292 110.08 20.712C110.752 21.12 111.262 21.69 111.61 22.422C111.97 23.142 112.15 23.976 112.15 24.924C112.15 25.152 112.072 25.344 111.916 25.5C111.76 25.644 111.562 25.716 111.322 25.716H104.068V24.276H111.268L110.53 24.78C110.518 24.18 110.398 23.646 110.17 23.178C109.942 22.698 109.618 22.32 109.198 22.044C108.778 21.768 108.268 21.63 107.668 21.63C106.984 21.63 106.396 21.78 105.904 22.08C105.424 22.38 105.058 22.794 104.806 23.322C104.554 23.838 104.428 24.426 104.428 25.086C104.428 25.746 104.578 26.334 104.878 26.85C105.178 27.366 105.592 27.774 106.12 28.074C106.648 28.374 107.254 28.524 107.938 28.524C108.31 28.524 108.688 28.458 109.072 28.326C109.468 28.182 109.786 28.02 110.026 27.84C110.206 27.708 110.398 27.642 110.602 27.642C110.818 27.63 111.004 27.69 111.16 27.822C111.364 28.002 111.472 28.2 111.484 28.416C111.496 28.632 111.4 28.818 111.196 28.974C110.788 29.298 110.278 29.562 109.666 29.766C109.066 29.97 108.49 30.072 107.938 30.072Z" fill="#795A1C"/>
    <path d="M24.088 39.06C23.832 39.06 23.588 39.02 23.356 38.94C23.124 38.86 22.922 38.748 22.75 38.604C22.578 38.46 22.452 38.294 22.372 38.106C22.332 38.022 22.332 37.944 22.372 37.872C22.416 37.8 22.488 37.754 22.588 37.734C22.66 37.718 22.73 37.73 22.798 37.77C22.87 37.806 22.924 37.862 22.96 37.938C23.008 38.038 23.086 38.13 23.194 38.214C23.306 38.298 23.44 38.366 23.596 38.418C23.752 38.47 23.916 38.496 24.088 38.496C24.28 38.496 24.456 38.466 24.616 38.406C24.78 38.346 24.912 38.26 25.012 38.148C25.112 38.032 25.162 37.89 25.162 37.722C25.162 37.51 25.078 37.32 24.91 37.152C24.746 36.984 24.474 36.88 24.094 36.84C23.598 36.792 23.208 36.646 22.924 36.402C22.64 36.158 22.498 35.856 22.498 35.496C22.498 35.232 22.572 35.008 22.72 34.824C22.868 34.64 23.068 34.5 23.32 34.404C23.576 34.308 23.86 34.26 24.172 34.26C24.416 34.26 24.628 34.294 24.808 34.362C24.992 34.43 25.152 34.524 25.288 34.644C25.424 34.764 25.542 34.906 25.642 35.07C25.698 35.158 25.72 35.242 25.708 35.322C25.7 35.398 25.662 35.458 25.594 35.502C25.518 35.55 25.436 35.56 25.348 35.532C25.26 35.504 25.194 35.452 25.15 35.376C25.086 35.26 25.008 35.162 24.916 35.082C24.824 35.002 24.716 34.94 24.592 34.896C24.468 34.848 24.322 34.824 24.154 34.824C23.858 34.82 23.61 34.876 23.41 34.992C23.21 35.104 23.11 35.278 23.11 35.514C23.11 35.634 23.14 35.75 23.2 35.862C23.264 35.97 23.378 36.064 23.542 36.144C23.71 36.224 23.95 36.28 24.262 36.312C24.738 36.36 25.108 36.506 25.372 36.75C25.64 36.99 25.774 37.308 25.774 37.704C25.774 37.932 25.726 38.13 25.63 38.298C25.538 38.466 25.412 38.608 25.252 38.724C25.096 38.836 24.916 38.92 24.712 38.976C24.512 39.032 24.304 39.06 24.088 39.06ZM29.2929 39.096C28.9089 39.096 28.5689 39.026 28.2729 38.886C27.9769 38.742 27.7449 38.544 27.5769 38.292C27.4129 38.04 27.3309 37.752 27.3309 37.428V34.626C27.3309 34.534 27.3609 34.46 27.4209 34.404C27.4809 34.344 27.5549 34.314 27.6429 34.314C27.7349 34.314 27.8089 34.344 27.8649 34.404C27.9249 34.46 27.9549 34.534 27.9549 34.626V37.428C27.9549 37.644 28.0109 37.836 28.1229 38.004C28.2389 38.168 28.3969 38.298 28.5969 38.394C28.8009 38.486 29.0329 38.532 29.2929 38.532C29.5449 38.532 29.7669 38.486 29.9589 38.394C30.1549 38.298 30.3069 38.168 30.4149 38.004C30.5269 37.836 30.5829 37.644 30.5829 37.428V34.626C30.5829 34.534 30.6129 34.46 30.6729 34.404C30.7329 34.344 30.8069 34.314 30.8949 34.314C30.9869 34.314 31.0609 34.344 31.1169 34.404C31.1729 34.46 31.2009 34.534 31.2009 34.626V37.428C31.2009 37.752 31.1189 38.04 30.9549 38.292C30.7949 38.544 30.5709 38.742 30.2829 38.886C29.9949 39.026 29.6649 39.096 29.2929 39.096ZM33.3112 39C33.2232 39 33.1492 38.97 33.0892 38.91C33.0292 38.85 32.9992 38.776 32.9992 38.688V34.626C32.9992 34.534 33.0292 34.46 33.0892 34.404C33.1492 34.344 33.2232 34.314 33.3112 34.314H34.7452C35.0172 34.314 35.2552 34.368 35.4592 34.476C35.6672 34.58 35.8292 34.726 35.9452 34.914C36.0652 35.102 36.1252 35.318 36.1252 35.562C36.1252 35.758 36.0712 35.936 35.9632 36.096C35.8592 36.252 35.7152 36.376 35.5312 36.468C35.7952 36.532 36.0072 36.658 36.1672 36.846C36.3272 37.034 36.4072 37.28 36.4072 37.584C36.4072 37.86 36.3412 38.104 36.2092 38.316C36.0812 38.528 35.9012 38.696 35.6692 38.82C35.4372 38.94 35.1712 39 34.8712 39H33.3112ZM33.6232 38.424H34.8712C35.0552 38.424 35.2172 38.392 35.3572 38.328C35.4972 38.264 35.6072 38.17 35.6872 38.046C35.7672 37.922 35.8072 37.768 35.8072 37.584C35.8072 37.412 35.7672 37.27 35.6872 37.158C35.6072 37.046 35.4972 36.962 35.3572 36.906C35.2172 36.846 35.0552 36.816 34.8712 36.816H33.6232V38.424ZM33.6232 36.24H34.7452C34.9732 36.24 35.1592 36.184 35.3032 36.072C35.4512 35.96 35.5252 35.79 35.5252 35.562C35.5252 35.334 35.4512 35.166 35.3032 35.058C35.1592 34.946 34.9732 34.89 34.7452 34.89H33.6232V36.24ZM39.4232 39.06C39.1672 39.06 38.9232 39.02 38.6912 38.94C38.4592 38.86 38.2572 38.748 38.0852 38.604C37.9132 38.46 37.7872 38.294 37.7072 38.106C37.6672 38.022 37.6672 37.944 37.7072 37.872C37.7512 37.8 37.8232 37.754 37.9232 37.734C37.9952 37.718 38.0652 37.73 38.1332 37.77C38.2052 37.806 38.2592 37.862 38.2952 37.938C38.3432 38.038 38.4212 38.13 38.5292 38.214C38.6412 38.298 38.7752 38.366 38.9312 38.418C39.0872 38.47 39.2512 38.496 39.4232 38.496C39.6152 38.496 39.7912 38.466 39.9512 38.406C40.1152 38.346 40.2472 38.26 40.3472 38.148C40.4472 38.032 40.4972 37.89 40.4972 37.722C40.4972 37.51 40.4132 37.32 40.2452 37.152C40.0812 36.984 39.8092 36.88 39.4292 36.84C38.9332 36.792 38.5432 36.646 38.2592 36.402C37.9752 36.158 37.8332 35.856 37.8332 35.496C37.8332 35.232 37.9072 35.008 38.0552 34.824C38.2032 34.64 38.4032 34.5 38.6552 34.404C38.9112 34.308 39.1952 34.26 39.5072 34.26C39.7512 34.26 39.9632 34.294 40.1432 34.362C40.3272 34.43 40.4872 34.524 40.6232 34.644C40.7592 34.764 40.8772 34.906 40.9772 35.07C41.0332 35.158 41.0552 35.242 41.0432 35.322C41.0352 35.398 40.9972 35.458 40.9292 35.502C40.8532 35.55 40.7712 35.56 40.6832 35.532C40.5952 35.504 40.5292 35.452 40.4852 35.376C40.4212 35.26 40.3432 35.162 40.2512 35.082C40.1592 35.002 40.0512 34.94 39.9272 34.896C39.8032 34.848 39.6572 34.824 39.4892 34.824C39.1932 34.82 38.9452 34.876 38.7452 34.992C38.5452 35.104 38.4452 35.278 38.4452 35.514C38.4452 35.634 38.4752 35.75 38.5352 35.862C38.5992 35.97 38.7132 36.064 38.8772 36.144C39.0452 36.224 39.2852 36.28 39.5972 36.312C40.0732 36.36 40.4432 36.506 40.7072 36.75C40.9752 36.99 41.1092 37.308 41.1092 37.704C41.1092 37.932 41.0612 38.13 40.9652 38.298C40.8732 38.466 40.7472 38.608 40.5872 38.724C40.4312 38.836 40.2512 38.92 40.0472 38.976C39.8472 39.032 39.6392 39.06 39.4232 39.06ZM44.766 39.06C44.442 39.06 44.138 39 43.854 38.88C43.574 38.756 43.328 38.586 43.116 38.37C42.908 38.15 42.744 37.894 42.624 37.602C42.508 37.31 42.45 36.994 42.45 36.654C42.45 36.318 42.508 36.006 42.624 35.718C42.744 35.426 42.908 35.172 43.116 34.956C43.328 34.736 43.574 34.564 43.854 34.44C44.134 34.316 44.438 34.254 44.766 34.254C45.074 34.254 45.338 34.294 45.558 34.374C45.782 34.454 46.006 34.586 46.23 34.77C46.262 34.794 46.286 34.82 46.302 34.848C46.322 34.872 46.334 34.898 46.338 34.926C46.346 34.95 46.35 34.98 46.35 35.016C46.35 35.092 46.322 35.156 46.266 35.208C46.214 35.256 46.15 35.284 46.074 35.292C45.998 35.296 45.924 35.27 45.852 35.214C45.704 35.086 45.55 34.988 45.39 34.92C45.234 34.852 45.026 34.818 44.766 34.818C44.53 34.818 44.308 34.866 44.1 34.962C43.892 35.058 43.708 35.19 43.548 35.358C43.392 35.526 43.27 35.722 43.182 35.946C43.094 36.166 43.05 36.402 43.05 36.654C43.05 36.91 43.094 37.15 43.182 37.374C43.27 37.594 43.392 37.788 43.548 37.956C43.708 38.124 43.892 38.256 44.1 38.352C44.308 38.444 44.53 38.49 44.766 38.49C44.97 38.49 45.162 38.456 45.342 38.388C45.526 38.316 45.702 38.218 45.87 38.094C45.942 38.042 46.012 38.02 46.08 38.028C46.152 38.032 46.212 38.06 46.26 38.112C46.308 38.16 46.332 38.228 46.332 38.316C46.332 38.356 46.324 38.396 46.308 38.436C46.292 38.472 46.268 38.506 46.236 38.538C46.02 38.71 45.788 38.84 45.54 38.928C45.296 39.016 45.038 39.06 44.766 39.06ZM48.2421 39C48.1541 39 48.0801 38.97 48.0201 38.91C47.9601 38.85 47.9301 38.776 47.9301 38.688V34.626C47.9301 34.534 47.9601 34.46 48.0201 34.404C48.0801 34.344 48.1541 34.314 48.2421 34.314H49.3221C49.6221 34.314 49.8881 34.378 50.1201 34.506C50.3521 34.63 50.5321 34.802 50.6601 35.022C50.7921 35.242 50.8581 35.498 50.8581 35.79C50.8581 36.062 50.7921 36.304 50.6601 36.516C50.5321 36.728 50.3521 36.894 50.1201 37.014C49.8881 37.134 49.6221 37.194 49.3221 37.194H48.5541V38.688C48.5541 38.776 48.5241 38.85 48.4641 38.91C48.4081 38.97 48.3341 39 48.2421 39ZM50.7321 39C50.6761 39 50.6241 38.988 50.5761 38.964C50.5321 38.94 50.4941 38.902 50.4621 38.85L49.3821 37.11L49.9881 36.936L50.9721 38.52C51.0441 38.636 51.0541 38.746 51.0021 38.85C50.9501 38.95 50.8601 39 50.7321 39ZM48.5541 36.618H49.3221C49.5061 36.618 49.6681 36.584 49.8081 36.516C49.9481 36.444 50.0581 36.346 50.1381 36.222C50.2181 36.094 50.2581 35.95 50.2581 35.79C50.2581 35.614 50.2181 35.458 50.1381 35.322C50.0581 35.186 49.9481 35.08 49.8081 35.004C49.6681 34.928 49.5061 34.89 49.3221 34.89H48.5541V36.618ZM52.6331 39C52.5451 39 52.4711 38.97 52.4111 38.91C52.3511 38.85 52.3211 38.776 52.3211 38.688V34.626C52.3211 34.534 52.3511 34.46 52.4111 34.404C52.4711 34.344 52.5451 34.314 52.6331 34.314C52.7251 34.314 52.7991 34.344 52.8551 34.404C52.9151 34.46 52.9451 34.534 52.9451 34.626V38.688C52.9451 38.776 52.9151 38.85 52.8551 38.91C52.7991 38.97 52.7251 39 52.6331 39ZM55.0554 39C54.9674 39 54.8934 38.97 54.8334 38.91C54.7734 38.85 54.7434 38.776 54.7434 38.688V34.626C54.7434 34.534 54.7734 34.46 54.8334 34.404C54.8934 34.344 54.9674 34.314 55.0554 34.314H56.2554C56.5554 34.314 56.8214 34.38 57.0534 34.512C57.2854 34.644 57.4654 34.828 57.5934 35.064C57.7254 35.296 57.7914 35.564 57.7914 35.868C57.7914 36.16 57.7254 36.42 57.5934 36.648C57.4654 36.876 57.2854 37.054 57.0534 37.182C56.8214 37.31 56.5554 37.374 56.2554 37.374H55.3674V38.688C55.3674 38.776 55.3374 38.85 55.2774 38.91C55.2214 38.97 55.1474 39 55.0554 39ZM55.3674 36.798H56.2554C56.4394 36.798 56.6014 36.758 56.7414 36.678C56.8814 36.598 56.9914 36.488 57.0714 36.348C57.1514 36.208 57.1914 36.048 57.1914 35.868C57.1914 35.676 57.1514 35.508 57.0714 35.364C56.9914 35.216 56.8814 35.1 56.7414 35.016C56.6014 34.932 56.4394 34.89 56.2554 34.89H55.3674V36.798ZM60.5262 39C60.4382 39 60.3642 38.97 60.3042 38.91C60.2442 38.85 60.2142 38.776 60.2142 38.688V34.314H60.8382V38.688C60.8382 38.776 60.8082 38.85 60.7482 38.91C60.6882 38.97 60.6142 39 60.5262 39ZM58.9182 34.89C58.8342 34.89 58.7642 34.864 58.7082 34.812C58.6562 34.756 58.6302 34.686 58.6302 34.602C58.6302 34.518 58.6562 34.45 58.7082 34.398C58.7642 34.342 58.8342 34.314 58.9182 34.314H62.1282C62.2122 34.314 62.2802 34.342 62.3322 34.398C62.3882 34.45 62.4162 34.518 62.4162 34.602C62.4162 34.686 62.3882 34.756 62.3322 34.812C62.2802 34.864 62.2122 34.89 62.1282 34.89H58.9182ZM64.019 39C63.931 39 63.857 38.97 63.797 38.91C63.737 38.85 63.707 38.776 63.707 38.688V34.626C63.707 34.534 63.737 34.46 63.797 34.404C63.857 34.344 63.931 34.314 64.019 34.314C64.111 34.314 64.185 34.344 64.241 34.404C64.301 34.46 64.331 34.534 64.331 34.626V38.688C64.331 38.776 64.301 38.85 64.241 38.91C64.185 38.97 64.111 39 64.019 39ZM68.2953 39.06C67.9433 39.06 67.6213 39.002 67.3293 38.886C67.0373 38.766 66.7853 38.6 66.5733 38.388C66.3653 38.172 66.2033 37.918 66.0873 37.626C65.9713 37.33 65.9133 37.006 65.9133 36.654C65.9133 36.302 65.9713 35.98 66.0873 35.688C66.2033 35.396 66.3653 35.144 66.5733 34.932C66.7853 34.716 67.0373 34.55 67.3293 34.434C67.6213 34.314 67.9433 34.254 68.2953 34.254C68.6473 34.254 68.9673 34.314 69.2553 34.434C69.5473 34.55 69.7993 34.716 70.0113 34.932C70.2233 35.144 70.3873 35.396 70.5033 35.688C70.6193 35.98 70.6773 36.302 70.6773 36.654C70.6773 37.006 70.6193 37.33 70.5033 37.626C70.3873 37.918 70.2233 38.172 70.0113 38.388C69.7993 38.6 69.5473 38.766 69.2553 38.886C68.9673 39.002 68.6473 39.06 68.2953 39.06ZM68.2953 38.496C68.5553 38.496 68.7933 38.45 69.0093 38.358C69.2293 38.262 69.4193 38.132 69.5793 37.968C69.7393 37.8 69.8613 37.604 69.9453 37.38C70.0333 37.156 70.0773 36.914 70.0773 36.654C70.0773 36.394 70.0333 36.152 69.9453 35.928C69.8613 35.704 69.7393 35.51 69.5793 35.346C69.4193 35.178 69.2293 35.048 69.0093 34.956C68.7933 34.864 68.5553 34.818 68.2953 34.818C68.0353 34.818 67.7953 34.864 67.5753 34.956C67.3593 35.048 67.1713 35.178 67.0113 35.346C66.8553 35.51 66.7333 35.704 66.6453 35.928C66.5573 36.152 66.5133 36.394 66.5133 36.654C66.5133 36.914 66.5573 37.156 66.6453 37.38C66.7333 37.604 66.8553 37.8 67.0113 37.968C67.1713 38.132 67.3593 38.262 67.5753 38.358C67.7953 38.45 68.0353 38.496 68.2953 38.496ZM72.5607 39C72.4727 39 72.3987 38.97 72.3387 38.91C72.2827 38.85 72.2547 38.776 72.2547 38.688V34.626C72.2547 34.534 72.2827 34.46 72.3387 34.404C72.3987 34.344 72.4727 34.314 72.5607 34.314C72.6567 34.314 72.7367 34.352 72.8007 34.428L75.4167 37.908V34.626C75.4167 34.534 75.4467 34.46 75.5067 34.404C75.5667 34.344 75.6407 34.314 75.7287 34.314C75.8207 34.314 75.8947 34.344 75.9507 34.404C76.0067 34.46 76.0347 34.534 76.0347 34.626V38.688C76.0347 38.776 76.0067 38.85 75.9507 38.91C75.8947 38.97 75.8207 39 75.7287 39C75.6887 39 75.6447 38.992 75.5967 38.976C75.5527 38.956 75.5167 38.928 75.4887 38.892L72.8727 35.412V38.688C72.8727 38.776 72.8427 38.85 72.7827 38.91C72.7267 38.97 72.6527 39 72.5607 39ZM81.681 39.06C81.425 39.06 81.181 39.02 80.949 38.94C80.717 38.86 80.515 38.748 80.343 38.604C80.171 38.46 80.045 38.294 79.965 38.106C79.925 38.022 79.925 37.944 79.965 37.872C80.009 37.8 80.081 37.754 80.181 37.734C80.253 37.718 80.323 37.73 80.391 37.77C80.463 37.806 80.517 37.862 80.553 37.938C80.601 38.038 80.679 38.13 80.787 38.214C80.899 38.298 81.033 38.366 81.189 38.418C81.345 38.47 81.509 38.496 81.681 38.496C81.873 38.496 82.049 38.466 82.209 38.406C82.373 38.346 82.505 38.26 82.605 38.148C82.705 38.032 82.755 37.89 82.755 37.722C82.755 37.51 82.671 37.32 82.503 37.152C82.339 36.984 82.067 36.88 81.687 36.84C81.191 36.792 80.801 36.646 80.517 36.402C80.233 36.158 80.091 35.856 80.091 35.496C80.091 35.232 80.165 35.008 80.313 34.824C80.461 34.64 80.661 34.5 80.913 34.404C81.169 34.308 81.453 34.26 81.765 34.26C82.009 34.26 82.221 34.294 82.401 34.362C82.585 34.43 82.745 34.524 82.881 34.644C83.017 34.764 83.135 34.906 83.235 35.07C83.291 35.158 83.313 35.242 83.301 35.322C83.293 35.398 83.255 35.458 83.187 35.502C83.111 35.55 83.029 35.56 82.941 35.532C82.853 35.504 82.787 35.452 82.743 35.376C82.679 35.26 82.601 35.162 82.509 35.082C82.417 35.002 82.309 34.94 82.185 34.896C82.061 34.848 81.915 34.824 81.747 34.824C81.451 34.82 81.203 34.876 81.003 34.992C80.803 35.104 80.703 35.278 80.703 35.514C80.703 35.634 80.733 35.75 80.793 35.862C80.857 35.97 80.971 36.064 81.135 36.144C81.303 36.224 81.543 36.28 81.855 36.312C82.331 36.36 82.701 36.506 82.965 36.75C83.233 36.99 83.367 37.308 83.367 37.704C83.367 37.932 83.319 38.13 83.223 38.298C83.131 38.466 83.005 38.608 82.845 38.724C82.689 38.836 82.509 38.92 82.305 38.976C82.105 39.032 81.897 39.06 81.681 39.06ZM85.2358 39C85.1478 39 85.0738 38.97 85.0138 38.91C84.9538 38.85 84.9238 38.776 84.9238 38.688V34.626C84.9238 34.534 84.9538 34.46 85.0138 34.404C85.0738 34.344 85.1478 34.314 85.2358 34.314H87.9478C88.0398 34.314 88.1138 34.342 88.1698 34.398C88.2258 34.45 88.2538 34.52 88.2538 34.608C88.2538 34.692 88.2258 34.76 88.1698 34.812C88.1138 34.864 88.0398 34.89 87.9478 34.89H85.5478V36.348H87.2698C87.3618 36.348 87.4358 36.376 87.4918 36.432C87.5478 36.484 87.5758 36.552 87.5758 36.636C87.5758 36.72 87.5478 36.79 87.4918 36.846C87.4358 36.898 87.3618 36.924 87.2698 36.924H85.5478V38.424H87.9478C88.0398 38.424 88.1138 38.45 88.1698 38.502C88.2258 38.554 88.2538 38.622 88.2538 38.706C88.2538 38.794 88.2258 38.866 88.1698 38.922C88.1138 38.974 88.0398 39 87.9478 39H85.2358ZM90.037 39C89.949 39 89.875 38.97 89.815 38.91C89.755 38.85 89.725 38.776 89.725 38.688V34.626C89.725 34.534 89.755 34.46 89.815 34.404C89.875 34.344 89.949 34.314 90.037 34.314H91.117C91.417 34.314 91.683 34.378 91.915 34.506C92.147 34.63 92.327 34.802 92.455 35.022C92.587 35.242 92.653 35.498 92.653 35.79C92.653 36.062 92.587 36.304 92.455 36.516C92.327 36.728 92.147 36.894 91.915 37.014C91.683 37.134 91.417 37.194 91.117 37.194H90.349V38.688C90.349 38.776 90.319 38.85 90.259 38.91C90.203 38.97 90.129 39 90.037 39ZM92.527 39C92.471 39 92.419 38.988 92.371 38.964C92.327 38.94 92.289 38.902 92.257 38.85L91.177 37.11L91.783 36.936L92.767 38.52C92.839 38.636 92.849 38.746 92.797 38.85C92.745 38.95 92.655 39 92.527 39ZM90.349 36.618H91.117C91.301 36.618 91.463 36.584 91.603 36.516C91.743 36.444 91.853 36.346 91.933 36.222C92.013 36.094 92.053 35.95 92.053 35.79C92.053 35.614 92.013 35.458 91.933 35.322C91.853 35.186 91.743 35.08 91.603 35.004C91.463 34.928 91.301 34.89 91.117 34.89H90.349V36.618ZM95.724 39C95.596 39 95.502 38.934 95.442 38.802L93.684 34.782C93.628 34.646 93.622 34.534 93.666 34.446C93.71 34.358 93.794 34.314 93.918 34.314C94.058 34.314 94.154 34.376 94.206 34.5L95.748 38.202H95.682L97.254 34.5C97.286 34.428 97.322 34.38 97.362 34.356C97.406 34.328 97.464 34.314 97.536 34.314C97.656 34.314 97.738 34.358 97.782 34.446C97.83 34.53 97.83 34.624 97.782 34.728L96.006 38.802C95.978 38.866 95.94 38.916 95.892 38.952C95.848 38.984 95.792 39 95.724 39ZM99.4518 39C99.3638 39 99.2898 38.97 99.2298 38.91C99.1698 38.85 99.1398 38.776 99.1398 38.688V34.626C99.1398 34.534 99.1698 34.46 99.2298 34.404C99.2898 34.344 99.3638 34.314 99.4518 34.314C99.5438 34.314 99.6178 34.344 99.6738 34.404C99.7338 34.46 99.7638 34.534 99.7638 34.626V38.688C99.7638 38.776 99.7338 38.85 99.6738 38.91C99.6178 38.97 99.5438 39 99.4518 39ZM103.662 39.06C103.338 39.06 103.034 39 102.75 38.88C102.47 38.756 102.224 38.586 102.012 38.37C101.804 38.15 101.64 37.894 101.52 37.602C101.404 37.31 101.346 36.994 101.346 36.654C101.346 36.318 101.404 36.006 101.52 35.718C101.64 35.426 101.804 35.172 102.012 34.956C102.224 34.736 102.47 34.564 102.75 34.44C103.03 34.316 103.334 34.254 103.662 34.254C103.97 34.254 104.234 34.294 104.454 34.374C104.678 34.454 104.902 34.586 105.126 34.77C105.158 34.794 105.182 34.82 105.198 34.848C105.218 34.872 105.23 34.898 105.234 34.926C105.242 34.95 105.246 34.98 105.246 35.016C105.246 35.092 105.218 35.156 105.162 35.208C105.11 35.256 105.046 35.284 104.97 35.292C104.894 35.296 104.82 35.27 104.748 35.214C104.6 35.086 104.446 34.988 104.286 34.92C104.13 34.852 103.922 34.818 103.662 34.818C103.426 34.818 103.204 34.866 102.996 34.962C102.788 35.058 102.604 35.19 102.444 35.358C102.288 35.526 102.166 35.722 102.078 35.946C101.99 36.166 101.946 36.402 101.946 36.654C101.946 36.91 101.99 37.15 102.078 37.374C102.166 37.594 102.288 37.788 102.444 37.956C102.604 38.124 102.788 38.256 102.996 38.352C103.204 38.444 103.426 38.49 103.662 38.49C103.866 38.49 104.058 38.456 104.238 38.388C104.422 38.316 104.598 38.218 104.766 38.094C104.838 38.042 104.908 38.02 104.976 38.028C105.048 38.032 105.108 38.06 105.156 38.112C105.204 38.16 105.228 38.228 105.228 38.316C105.228 38.356 105.22 38.396 105.204 38.436C105.188 38.472 105.164 38.506 105.132 38.538C104.916 38.71 104.684 38.84 104.436 38.928C104.192 39.016 103.934 39.06 103.662 39.06ZM107.138 39C107.05 39 106.976 38.97 106.916 38.91C106.856 38.85 106.826 38.776 106.826 38.688V34.626C106.826 34.534 106.856 34.46 106.916 34.404C106.976 34.344 107.05 34.314 107.138 34.314H109.85C109.942 34.314 110.016 34.342 110.072 34.398C110.128 34.45 110.156 34.52 110.156 34.608C110.156 34.692 110.128 34.76 110.072 34.812C110.016 34.864 109.942 34.89 109.85 34.89H107.45V36.348H109.172C109.264 36.348 109.338 36.376 109.394 36.432C109.45 36.484 109.478 36.552 109.478 36.636C109.478 36.72 109.45 36.79 109.394 36.846C109.338 36.898 109.264 36.924 109.172 36.924H107.45V38.424H109.85C109.942 38.424 110.016 38.45 110.072 38.502C110.128 38.554 110.156 38.622 110.156 38.706C110.156 38.794 110.128 38.866 110.072 38.922C110.016 38.974 109.942 39 109.85 39H107.138Z" fill="#795A1C"/>
  </g>
  <defs>
    <clipPath id="clip0_1_1631">
      <rect width="113" height="46" fill="white"/>
    </clipPath>
  </defs>
</svg>