<svg xmlns="http://www.w3.org/2000/svg" width="16" height="17" viewBox="0 0 16 17" fill="none">
  <path d="M9.01767 5.71395L13.0177 12.114C13.1312 12.2956 13.194 12.5043 13.1997 12.7185C13.2053 12.9326 13.1535 13.1443 13.0496 13.3317C12.9458 13.519 12.7937 13.6752 12.6091 13.7839C12.4246 13.8926 12.2143 13.95 12.0001 13.95H4.00007C3.78586 13.95 3.57556 13.8926 3.391 13.7839C3.20644 13.6752 3.05434 13.519 2.9505 13.3317C2.84666 13.1443 2.79486 12.9326 2.80048 12.7185C2.8061 12.5043 2.86894 12.2956 2.98247 12.114L6.98247 5.71395C7.09034 5.54136 7.24033 5.39904 7.41835 5.30038C7.59636 5.20171 7.79654 5.14995 8.00007 5.14995C8.2036 5.14995 8.40378 5.20171 8.58179 5.30038C8.75981 5.39904 8.9098 5.54136 9.01767 5.71395Z" fill="#B1B6AF"/>
</svg>